<svg width="64.000000" height="64.000000" viewBox="0 0 64 64" fill="none" xmlns="http://www.w3.org/2000/svg" xmlns:xlink="http://www.w3.org/1999/xlink">
	<desc>
			Created with Pixso.
	</desc>
	<defs>
		<clipPath id="clip694_634">
			<rect id="idea-ce_64" width="64.000008" height="64.000000" fill="white" fill-opacity="0"/>
		</clipPath>
		<linearGradient x1="14.000000" y1="50.000000" x2="47.778778" y2="50.000000" id="paint_linear_694_633_0" gradientUnits="userSpaceOnUse">
			<stop stop-color="#162BF7"/>
			<stop offset="1.000000" stop-color="#2EB1E3"/>
		</linearGradient>
	</defs>
	<rect id="idea-ce_64" width="64.000008" height="64.000000" fill="#FFFFFF" fill-opacity="0"/>
	<g clip-path="url(#clip694_634)">
		<rect id="Rectangle 1" x="6.000000" y="6.000000" rx="6.000000" width="52.000000" height="52.000000" fill="#FFFFFF" fill-opacity="1.000000"/>
		<path id="Path 4" d="M45.03 42.51C45.04 42.51 45.04 42.51 45.04 42.51C47.64 39.84 49.56 36.41 49.99 32.64C49.41 42.32 41.6 50 32.02 50C28.56 50 25.18 48.97 22.28 47.04C24.79 48.43 27.67 49.01 30.52 48.93C30.62 48.93 30.72 48.92 30.82 48.91C30.82 48.91 30.83 48.91 30.82 48.9C30.49 48.45 30.19 47.97 29.93 47.46C29.92 47.45 29.92 47.45 29.91 47.44C29.9 47.44 29.89 47.43 29.88 47.43C28.2 47.52 26.52 47.37 24.87 46.98C24.87 46.98 24.87 46.98 24.86 46.98C24.86 46.98 24.86 46.97 24.86 46.97C24.47 46.26 24.15 45.5 23.91 44.72C23.91 44.71 23.92 44.71 23.92 44.71C25.55 45.07 27.22 45.2 28.89 45.11C28.9 45.11 28.91 45.1 28.9 45.09C28.61 44.23 28.34 43.37 28.09 42.49C28.08 42.46 28.05 42.45 28.01 42.45C27.2 42.5 26.38 42.49 25.57 42.43C22.34 42.19 19.18 41.03 16.84 38.67C16.83 38.66 16.83 38.66 16.83 38.68C16.82 38.74 16.82 38.79 16.83 38.84C16.87 39.57 16.98 40.29 17.15 40.99C17.15 41 17.16 41 17.16 41.01C18.15 42.03 19.29 42.88 20.56 43.5C20.57 43.51 20.58 43.52 20.58 43.53C20.59 43.53 20.59 43.54 20.6 43.55C20.81 44.31 21.11 45.04 21.48 45.73C20.28 45.11 19.18 44.31 18.22 43.34C16.42 41.15 15.15 38.56 14.5 35.77C14.5 35.75 14.49 35.72 14.48 35.7L14.47 35.65C14.42 35.42 14.37 35.2 14.33 34.96C14.26 34.6 14.2 34.24 14.16 33.87C14.06 33.08 14 32.29 14 31.5C14 31.09 14.02 30.75 14.04 30.43C14.44 21.18 21.92 13.5 31.02 13.02C31.45 12.99 31.9 12.99 32.34 13C32.47 13 32.61 13 32.75 13C35.44 13.11 38.06 13.82 40.45 15.1C40.5 15.13 40.51 15.15 40.49 15.19C40.48 15.23 40.44 15.24 40.4 15.22C38.39 14.49 36.29 14.13 34.16 14.13C28.55 14.13 23.63 16.62 20.88 20.34C19.67 21.85 18.8 23.56 18.46 25.34C18.28 26.33 18.28 27.36 18.57 28.32C19.18 30.19 20.66 31.83 22.54 32.33C23.27 32.52 24.02 32.6 24.77 32.55C28.86 32.21 32.39 29.68 35.48 27.08C36.86 25.9 40.24 22.62 39.22 20.61L39.14 20.58C35.95 22.08 32.98 24.02 30.14 26.11L30.05 26.1C28.73 24.34 27.37 22.62 25.91 20.97C25.91 20.96 25.91 20.95 25.91 20.94C25.92 20.92 25.92 20.9 25.92 20.88C29.44 18.16 33.62 16.01 38.09 15.77C38.23 15.77 38.38 15.77 38.54 15.77C38.7 15.77 38.87 15.78 39.02 15.77L39.03 15.77C40.66 15.85 42.37 16.28 43.68 17.34C46.28 19.55 48.2 22.55 49.21 25.85C49.6 27.15 49.86 28.49 49.97 29.85C49.97 29.93 49.98 30.03 49.99 30.12C49.99 30.16 49.99 30.21 50 30.25C49.94 29.88 49.86 29.52 49.75 29.17C49.75 29.16 49.74 29.16 49.74 29.16C49.73 29.16 49.73 29.16 49.73 29.17C49.79 32.27 48.78 35.23 47.12 37.8C47.12 37.81 47.11 37.81 47.11 37.8L46.92 37.3C46.92 37.29 46.91 37.29 46.91 37.29C46.91 37.28 46.92 37.28 46.92 37.28C48.4 35 49.39 32.36 49.54 29.62C49.55 29.58 49.55 29.54 49.54 29.51C49.37 29.06 49.15 28.63 48.9 28.21C48.9 28.21 48.89 28.21 48.89 28.21C48.89 28.21 48.89 28.21 48.88 28.21C48.88 28.21 48.88 28.22 48.88 28.22C48.73 30.97 47.73 33.59 46.24 35.86C46.23 35.87 46.23 35.87 46.23 35.86L45.89 35.27C45.89 35.27 45.89 35.26 45.89 35.26C45.89 35.26 45.89 35.25 45.89 35.25C47.54 32.77 48.63 29.78 48.55 26.73C48.55 26.71 48.54 26.7 48.53 26.68C48.11 26.09 47.65 25.54 47.14 25.05C47.14 25.05 47.14 25.04 47.14 25.04C47.13 25.04 47.13 25.04 47.12 25.05C47.12 25.05 47.12 25.05 47.12 25.05C47.13 29.34 44.95 33.25 42.02 36.14C42.01 36.15 42.01 36.15 42.01 36.16C42 36.17 42 36.18 42.01 36.19C42.78 37.38 43.47 38.62 44.08 39.9C44.47 40.73 44.81 41.6 45.01 42.49C45.01 42.5 45.01 42.5 45.02 42.51C45.02 42.51 45.02 42.51 45.03 42.51C45.03 42.51 45.03 42.51 45.03 42.51ZM43.29 43.51C43.51 43.2 43.68 42.87 43.82 42.52C44.2 41.52 44.01 40.61 43.49 39.71C42.96 38.79 42.05 38.32 41.02 38.38C40.26 38.43 39.52 38.68 38.83 38.97C38.12 39.28 37.44 39.62 36.76 39.97C36.67 40.02 36.58 40.06 36.48 40.11C33.98 41.39 31.27 42.17 28.48 42.42C28.48 42.43 28.47 42.43 28.47 42.43C28.46 42.44 28.46 42.45 28.46 42.45C28.85 43.87 29.33 45.24 29.92 46.58C30.27 47.38 30.7 48.18 31.22 48.88C31.22 48.88 31.22 48.88 31.23 48.88C31.23 48.89 31.24 48.89 31.24 48.89C31.28 48.89 31.33 48.89 31.37 48.89C34.33 48.66 37.2 47.81 39.83 46.4C41.13 45.7 42.42 44.75 43.29 43.51ZM33.35 44.18C34.71 43.79 36.03 43.29 37.3 42.67L37.31 42.67C38.23 42.22 39.72 41.5 40.26 42.95C40.35 43.14 40.37 43.35 40.35 43.55C40.32 43.76 40.24 43.95 40.12 44.11C39.75 44.61 39.2 44.98 38.66 45.25C37.33 45.92 35.95 46.45 34.52 46.84C34.52 46.84 34.52 46.84 34.52 46.84C34.1 45.97 33.71 45.08 33.35 44.19C33.34 44.18 33.35 44.18 33.35 44.18Z" fill="url(#paint_linear_694_633_0)" fill-opacity="1.000000" fill-rule="evenodd"/>
	</g>
</svg>
